
Cover :- 

General
Format                                   : Matroska
File size                                : 702 MiB
Duration                                 : 1h 27mn
Overall bit rate                         : 1 119 Kbps
Movie name                               : Rambo IV (2008) 720p BRRip [Dual Audio][Eng-Hind] ~ CT PATEL

Video
ID                                       : 1
Format                                   : AVC
Format/Info                              : Advanced Video r
Duration                                 : 1h 27mn
Bit rate                                 : 949 Kbps
Width                                    : 1 280 pixels
Height                                   : 528 pixels
Frame rate                               : 25.000 fps
Stream size                              : 578 MiB (82%)
Title                                    : Rambo IV (2008) 720p BRRip [Dual Audio][Eng-Hind] ~ CT PATEL

Audio #1
ID                                       : 2
Format                                   : AC-3
Format/Info                              : Audio Coding 3
Format profile                           : Dolby Digital
Duration                                 : 1h 27mn
Bit rate                                 : 80.0 Kbps
Channel(s)                               : 2 channels
Channel positions                        : Front: L R
Stream size                              : 50.2 MiB (7%)
Title                                    : English Audio ~ CT PATEL
Language                                 : English

Audio #2
ID                                       : 3
Format                                   : AC-3
Format/Info                              : Audio Coding 3
Duration                                 : 1h 27mn
Bit rate                                 : 96.0 Kbps
Channel(s)                               : 2 channels
Channel positions                        : Front: L R
Delay relative to video                  : 422ms
Stream size                              : 60.3 MiB (9%)
Title                                    : Hindi Audio ~ CT PATEL
Language                                 : Hindi

ScreenShots:-

